<svg width="39" height="39" viewBox="0 0 39 39" fill="none" xmlns="http://www.w3.org/2000/svg">
<path fill-rule="evenodd" clip-rule="evenodd" d="M23.4167 4.44375C23.4167 3.02507 22.2666 1.875 20.8479 1.875H18.1521C16.7334 1.875 15.5833 3.02507 15.5833 4.44375V4.94716C15.5833 5.78496 15.021 6.51282 14.2473 6.83407V6.83407C13.4732 7.15545 12.572 7.03297 11.9793 6.44033L11.4375 5.89854C10.297 4.75796 8.44771 4.75796 7.30713 5.89854L5.89854 7.30713C4.75796 8.44772 4.75796 10.297 5.89854 11.4375L6.44033 11.9793C7.03297 12.572 7.15544 13.4732 6.83407 14.2473V14.2473C6.51282 15.021 5.78496 15.5833 4.94717 15.5833H4.44375C3.02507 15.5833 1.875 16.7334 1.875 18.1521V20.8479C1.875 22.2666 3.02507 23.4167 4.44375 23.4167H5.24287C5.90524 23.4167 6.4823 23.8591 6.72283 24.4763V24.4763C6.95398 25.0693 6.8438 25.7484 6.3937 26.1984L5.7702 26.822C4.70048 27.8917 4.70048 29.626 5.7702 30.6957L7.65968 32.5852C8.60554 33.5311 10.1391 33.5311 11.0849 32.5852L11.1721 32.4981C11.9085 31.7617 13.0372 31.6373 13.9906 32.0563V32.0563C14.9079 32.4593 15.5833 33.3275 15.5833 34.3294V34.5563C15.5833 35.9749 16.7334 37.125 18.1521 37.125H20.8479C22.2666 37.125 23.4167 35.9749 23.4167 34.5563V34.0528C23.4167 33.215 23.979 32.4872 24.7527 32.1659V32.1659C25.5268 31.8446 26.428 31.967 27.0207 32.5597L27.1912 32.7302C28.057 33.596 29.4607 33.596 30.3265 32.7302L32.7302 30.3265C33.596 29.4607 33.596 28.057 32.7302 27.1912L32.5597 27.0207C31.967 26.428 31.8446 25.5268 32.1659 24.7527V24.7527C32.4872 23.979 33.215 23.4167 34.0528 23.4167H34.5563C35.9749 23.4167 37.125 22.2666 37.125 20.8479V18.1521C37.125 16.7334 35.9749 15.5833 34.5563 15.5833H34.3294C33.3275 15.5833 32.4593 14.9079 32.0563 13.9906V13.9906C31.6373 13.0372 31.7617 11.9085 32.4981 11.1721L32.5852 11.0849C33.5311 10.1391 33.5311 8.60558 32.5852 7.65973L30.6957 5.77021C29.626 4.7005 27.8916 4.7005 26.8219 5.77021L26.1985 6.3937C25.7484 6.8438 25.0694 6.95398 24.4763 6.72283V6.72283C23.8591 6.4823 23.4167 5.90524 23.4167 5.24287V4.44375ZM19.5 25.375C22.7447 25.375 25.375 22.7447 25.375 19.5C25.375 16.2553 22.7447 13.625 19.5 13.625C16.2553 13.625 13.625 16.2553 13.625 19.5C13.625 22.7447 16.2553 25.375 19.5 25.375Z" stroke="white" stroke-width="1.95833" stroke-linejoin="round"/>
</svg>
