<svg width="333" height="124" viewBox="0 0 333 124" fill="none" xmlns="http://www.w3.org/2000/svg">
<path d="M308.563 20.9116C308.563 15.2594 303.981 10.6774 298.328 10.6774C297.186 10.6774 296.089 10.8671 295.064 11.2123C293.201 8.67689 290.199 7.03043 286.812 7.03043C284.427 7.03043 282.234 7.84864 280.494 9.21655C278.2 5.51559 274.104 3.04925 269.429 3.04925C263.999 3.04925 259.348 6.37681 257.398 11.1031C256.286 10.6189 255.059 10.3491 253.769 10.3491C249.115 10.3491 245.279 13.843 244.734 18.3504C238.692 18.8139 233.932 23.8598 233.932 30.0214C233.932 30.2412 233.94 30.4591 233.951 30.676C230.152 31.3415 227.265 34.6538 227.265 38.6433C227.265 39.9733 227.588 41.2272 228.156 42.3338C223.37 44.2292 219.984 48.8953 219.984 54.3552C219.984 59.6458 223.163 64.1912 227.714 66.1929C227.135 67.5802 226.814 69.1022 226.814 70.6992C226.814 77.1658 232.057 82.4084 238.523 82.4084C240.855 82.4084 243.026 81.7242 244.85 80.5495C246.718 85.1891 251.258 88.4658 256.565 88.4658C260.017 88.4658 263.144 87.0792 265.423 84.835C267.196 87.4901 270.219 89.2393 273.651 89.2393C276.459 89.2393 278.991 88.0671 280.791 86.1877C282.431 87.3981 284.459 88.1148 286.654 88.1148C292.115 88.1148 296.541 83.6884 296.541 78.2279C296.541 73.9403 293.812 70.2914 289.996 68.9211C291.816 67.7362 293.072 65.76 293.278 63.4798C293.751 63.5469 294.235 63.5839 294.727 63.5839C300.379 63.5839 304.961 59.0019 304.961 53.3497C304.961 48.0658 300.957 43.7184 295.818 43.174C297.212 41.1837 298.033 38.7618 298.033 36.1469C298.033 34.327 297.634 32.6015 296.923 31.0484C297.383 31.1117 297.851 31.1471 298.328 31.1471C303.981 31.1456 308.563 26.5639 308.563 20.9116Z" fill="#FFA200"/>
<path d="M280.598 9.1387C280.564 9.16522 280.528 9.1903 280.494 9.21706C278.203 5.51634 274.105 3.04808 269.43 3.04808C264 3.04808 259.349 6.3754 257.398 11.1029C256.286 10.6175 255.059 10.3499 253.771 10.3499C249.117 10.3499 245.281 13.8418 244.733 18.3488C238.691 18.8137 233.934 23.8589 233.934 30.0219C233.934 30.2395 233.94 30.4603 233.951 30.675C230.154 31.3399 227.265 34.6524 227.265 38.6415C227.265 39.974 227.588 41.2273 228.156 42.3336C223.37 44.228 219.984 48.8939 219.984 54.3538C219.984 59.6463 223.164 64.1912 227.715 66.1917C227.135 67.5802 226.814 69.1012 226.814 70.6987C226.814 77.1649 232.057 82.4072 238.523 82.4072C240.679 82.4072 242.697 81.8248 244.43 80.804C241.668 78.8594 239.861 75.6441 239.861 72.0079C239.861 70.5399 240.156 69.1395 240.688 67.8657C236.508 66.0271 233.586 61.8525 233.586 56.9898C233.586 51.9739 236.699 47.6877 241.094 45.9461C240.573 44.9313 240.276 43.7779 240.276 42.5572C240.276 38.8916 242.93 35.8469 246.419 35.2379C246.407 35.038 246.401 34.8378 246.401 34.635C246.401 28.9748 250.772 24.3386 256.324 23.9119C256.824 19.7729 260.348 16.5633 264.626 16.5633C265.811 16.5633 266.938 16.8103 267.959 17.2547C269.75 12.9125 274.025 9.85586 279.011 9.85586C279.549 9.85586 280.079 9.89146 280.598 9.96026L280.598 9.1387Z" fill="#FF8A00"/>
<path d="M330.793 42.9504L329.663 43.6033C323.754 47.0149 316.197 44.9903 312.786 39.081L312.133 37.9506L313.263 37.2977C319.173 33.886 326.729 35.9106 330.14 41.8199L330.793 42.9504Z" fill="#F7B239"/>
<path d="M289.186 80.4332C287.967 80.4332 286.98 79.4453 286.98 78.2267C286.98 77.9984 286.766 77.9191 286.764 77.9183C285.617 77.5065 285.021 76.243 285.433 75.096C285.846 73.9491 287.109 73.3535 288.256 73.7654C289.817 74.3261 291.393 75.9233 291.393 78.227C291.393 79.4453 290.405 80.4332 289.186 80.4332Z" fill="white"/>
<path d="M297.606 55.5549C296.387 55.5549 295.4 54.5671 295.4 53.3485C295.4 52.9978 295.152 52.7169 294.81 52.6803C293.598 52.5518 292.72 51.4655 292.848 50.2536C292.977 49.0419 294.061 48.1628 295.275 48.2921C297.862 48.5663 299.813 50.74 299.813 53.3485C299.813 54.5671 298.825 55.5549 297.606 55.5549Z" fill="white"/>
<path d="M332.704 41.8472L332.051 40.7167C328.037 33.7637 319.114 31.3716 312.16 35.3867L311.029 36.0396C309.974 36.6488 309.612 37.9983 310.222 39.0535L310.875 40.184C312.819 43.5524 315.959 45.9621 319.716 46.9688C320.971 47.3052 322.244 47.4712 323.509 47.4712C326.032 47.4712 328.522 46.8092 330.766 45.5144L331.897 44.8615C332.404 44.5689 332.774 44.087 332.925 43.5218C333.076 42.9564 332.997 42.3541 332.704 41.8472ZM320.858 42.7062C318.546 42.087 316.57 40.7052 315.205 38.7738C319.625 36.7403 324.909 38.1562 327.72 42.1269C325.573 43.1178 323.17 43.3259 320.858 42.7062Z" fill="#333333"/>
<path d="M317.072 118.744H257.815C257.874 108.489 258.344 99.0488 259.076 90.4579C261.264 90.086 263.329 89.2317 265.14 87.9436C267.383 90.1677 270.426 91.4446 273.651 91.4446C276.363 91.4446 278.925 90.5638 281.028 88.9345C282.753 89.8449 284.668 90.3198 286.654 90.3198C293.322 90.3198 298.747 84.8948 298.747 78.2265C298.747 74.2769 296.809 70.6371 293.703 68.4015C294.283 67.6072 294.735 66.7259 295.042 65.7854C301.757 65.6174 307.168 60.103 307.168 53.3488C307.168 48.0529 303.875 43.4889 299.131 41.7065C299.862 39.9573 300.24 38.076 300.24 36.1457C300.24 35.1627 300.143 34.1942 299.95 33.2467C306.046 32.45 310.769 27.2218 310.769 20.9114C310.769 14.0515 305.188 8.47073 298.329 8.47073C297.494 8.47073 296.665 8.55434 295.851 8.7199C293.516 6.25761 290.237 4.82401 286.812 4.82401C284.773 4.82401 282.817 5.30681 281.052 6.23468C278.181 2.82422 273.977 0.842827 269.429 0.842827C263.934 0.842827 258.963 3.75901 256.266 8.41961C255.452 8.23542 254.618 8.14273 253.77 8.14273C248.643 8.14273 244.231 11.5835 242.883 16.3844C236.838 17.6094 232.228 22.7879 231.764 28.9899C227.788 30.4603 225.058 34.2668 225.058 38.6431C225.058 39.5117 225.17 40.3799 225.387 41.2205C220.704 43.8888 217.778 48.8401 217.778 54.3552C217.778 59.6749 220.569 64.5536 225.032 67.2765C224.75 68.3891 224.608 69.5339 224.608 70.6992C224.608 78.372 230.85 84.6146 238.524 84.6146C240.378 84.6146 242.196 84.2474 243.885 83.5405C246.215 87.3946 250.155 89.9701 254.639 90.548C253.919 99.1331 253.46 108.545 253.402 118.744H238.523C237.304 118.744 236.317 119.732 236.317 120.951C236.317 122.169 237.304 123.157 238.523 123.157H317.071C318.29 123.157 319.278 122.169 319.278 120.951C319.278 119.732 318.291 118.744 317.072 118.744ZM246.897 79.7251C246.652 79.1147 246.146 78.646 245.519 78.4463C244.892 78.2471 244.209 78.3374 243.656 78.6938C242.124 79.6802 240.349 80.2015 238.523 80.2015C233.283 80.2015 229.02 75.9384 229.02 70.6987C229.02 69.4326 229.266 68.2023 229.75 67.0422C230.213 65.9328 229.703 64.6566 228.602 64.1728C224.707 62.4595 222.19 58.6056 222.19 54.3547C222.19 49.9287 224.851 46.0152 228.968 44.3845C229.547 44.1554 230.002 43.6922 230.221 43.1097C230.44 42.5273 230.403 41.8792 230.118 41.3254C229.689 40.4881 229.47 39.5856 229.47 38.6429C229.47 35.779 231.515 33.3423 234.331 32.849C235.433 32.6559 236.215 31.6695 236.154 30.553C236.144 30.3766 236.138 30.1996 236.138 30.0207C236.138 25.087 239.988 20.9269 244.902 20.55C245.951 20.4697 246.798 19.6594 246.924 18.6149C247.341 15.1603 250.284 12.5554 253.769 12.5554C254.723 12.5554 255.648 12.7474 256.517 13.1261C257.061 13.3626 257.676 13.3709 258.226 13.148C258.775 12.9259 259.212 12.492 259.438 11.9443C261.114 7.88066 265.036 5.25545 269.429 5.25545C273.195 5.25545 276.63 7.17067 278.619 10.379C278.95 10.9127 279.492 11.2801 280.11 11.3895C280.728 11.4985 281.364 11.3396 281.857 10.9514C283.284 9.83004 284.997 9.2371 286.812 9.2371C289.356 9.2371 291.776 10.4638 293.285 12.5188C293.854 13.2921 294.858 13.6096 295.768 13.3036C296.595 13.025 297.457 12.8838 298.329 12.8838C302.755 12.8838 306.356 16.4852 306.356 20.9119C306.356 25.3386 302.755 28.9399 298.329 28.9399C297.97 28.9399 297.599 28.9137 297.224 28.8621C296.425 28.7514 295.632 29.0857 295.152 29.7316C294.672 30.3778 294.581 31.2343 294.917 31.9665C295.521 33.2857 295.827 34.692 295.827 36.1462C295.827 38.2191 295.199 40.2112 294.01 41.9069C293.562 42.5467 293.485 43.3759 293.809 44.087C294.133 44.798 294.808 45.2853 295.585 45.3675C299.672 45.8006 302.755 49.2319 302.755 53.349C302.755 57.7755 299.153 61.377 294.727 61.377C294.355 61.377 293.972 61.3493 293.587 61.2949C292.988 61.2101 292.381 61.3747 291.907 61.75C291.433 62.1257 291.134 62.6793 291.079 63.2817C290.94 64.8346 290.106 66.2158 288.791 67.0718C288.089 67.5291 287.707 68.3444 287.804 69.1767C287.901 70.009 288.461 70.7145 289.25 70.9973C292.291 72.0893 294.334 74.995 294.334 78.2275C294.334 82.4626 290.889 85.9079 286.654 85.9079C285.001 85.9079 283.427 85.3905 282.1 84.4117C281.208 83.7531 279.964 83.8601 279.197 84.6611C277.732 86.1903 275.763 87.0322 273.651 87.0322C271.079 87.0322 268.69 85.7524 267.258 83.609C266.893 83.0622 266.303 82.7065 265.648 82.6394C265.573 82.6317 265.498 82.6279 265.423 82.6279C264.847 82.6279 264.29 82.8539 263.875 83.2622C262.807 84.3135 261.55 85.1057 260.185 85.6115C263.039 79.4532 269.741 67.1459 279.489 62.4404C280.586 61.9105 281.046 60.5913 280.516 59.4941C279.987 58.3971 278.668 57.9372 277.57 58.4661C271.462 61.4148 265.801 67.0718 260.731 75.2714C261.676 68.2037 262.77 61.9093 263.891 56.4183C264.357 55.006 268.308 43.7122 276.507 40.0225C277.619 39.5225 278.114 38.2162 277.614 37.1051C277.114 35.9938 275.807 35.4988 274.697 35.9983C271.85 37.2793 269.456 39.2303 267.473 41.4071C271.175 28.0264 274.58 21.0834 274.648 20.9456C275.193 19.8557 274.752 18.5303 273.662 17.9854C272.571 17.4403 271.246 17.8822 270.701 18.9721C270.523 19.3294 266.276 27.9187 261.998 44.8486C260.75 49.7861 259.426 55.7664 258.201 62.738C257.584 59.049 257.236 55.0881 257.772 52.0542C257.984 50.8542 257.182 49.7099 255.982 49.498C254.781 49.2847 253.637 50.0874 253.426 51.2876C252.018 59.2676 255.628 71.8048 256.403 74.3545C255.901 78.0763 255.44 82.0063 255.038 86.1459C251.404 85.6155 248.301 83.2139 246.897 79.7251Z" fill="#333333"/>
<path d="M150.493 41.4683C145.257 46.7858 143.782 51.808 145.995 57.1994C147.543 60.8183 151.01 62.7385 156.024 62.7385C160.744 62.7385 162.883 61.5568 164.063 58.3072C165.095 55.1315 163.399 54.6145 160.376 57.1255C157.794 59.3412 158.016 59.2673 154.476 58.3072C151.526 57.4948 150.125 55.2792 150.125 51.291C150.125 48.7061 152.632 45.5303 157.057 42.5761C159.712 40.7297 159.417 38.0709 156.541 37.7755C154.844 37.554 153.665 38.2925 150.493 41.4683Z" fill="white"/>
<path d="M169.594 38.2187C167.972 39.2526 165.612 45.0133 165.612 47.7459C165.612 52.1772 168.783 56.0177 172.397 56.0916C174.757 56.0916 176.453 54.5406 178.001 50.9217L179.108 48.3368L179.624 50.6263C180.435 54.319 182.795 58.4549 184.934 60.0797C186.925 61.483 187.072 61.483 189.506 60.3013C190.981 59.6366 192.677 58.0118 193.341 56.6824C194.005 55.353 194.669 54.0975 194.816 53.9498C194.964 53.8021 196.07 54.6883 197.25 56.0177C202.412 61.5568 210.008 56.2393 209.787 47.0813C209.639 40.2127 209.049 38.7356 206.542 38.7356H204.33L204.551 44.2748C204.772 49.74 203.961 53.8759 202.56 53.8759C202.191 53.8759 200.716 52.1772 199.241 50.1832C197.766 48.1152 196.07 46.2688 195.406 45.9734C193.857 45.3826 191.792 47.5244 190.76 50.8479C190.317 52.3988 189.432 54.0975 188.916 54.6145C187.294 55.9439 185.376 51.6603 184.786 45.161C184.196 39.1788 182.943 37.1847 180.435 37.9971C179.181 38.3664 178.886 39.1049 178.813 41.5421C178.813 44.2748 178.665 44.4963 177.928 43.1669C175.273 38.8095 171.807 36.7416 169.594 38.2187ZM173.724 44.9395C175.42 48.2629 173.724 51.5126 170.774 50.5524C169.668 50.1832 169.299 49.4446 169.299 47.6721C169.299 43.8316 172.175 42.0591 173.724 44.9395Z" fill="white"/>
<path d="M82.7186 39.3265C81.4649 40.2127 81.3912 41.099 81.6862 47.3028C81.9074 51.1433 81.8337 56.387 81.3912 59.0458C81.0224 61.7045 80.9487 64.5849 81.1699 65.4712C81.6862 67.7607 84.0461 68.9423 86.0373 67.9084C87.3648 67.1698 87.5123 66.5051 87.291 61.5568C87.1435 56.9778 87.291 56.0916 88.176 56.2393C88.766 56.387 89.7247 57.8641 90.241 59.5628C91.2734 62.7385 92.8959 63.9202 95.1084 63.0339C95.7721 62.8124 96.4358 61.8523 96.5833 60.966C97.9108 54.3929 99.4595 48.7061 99.9757 48.7061C100.787 48.7061 101.893 51.808 103.663 58.9719C105.802 67.6129 106.908 69.5332 109.416 69.2378C111.112 69.0162 111.407 68.7208 111.259 66.8005C111.185 64.5849 106.171 47.229 103.958 41.4683C103.073 39.1049 102.409 38.3664 101.156 38.3664C98.6483 38.3664 97.0258 40.6559 95.4771 46.2688C93.5596 52.9897 92.9697 53.4328 91.1259 49.0015C88.6185 42.9454 86.2586 38.7356 85.1523 38.5141C84.5623 38.4402 83.4561 38.8095 82.7186 39.3265Z" fill="white"/>
<path d="M131.982 44.2009C129.328 45.8257 127.263 48.4845 127.263 50.1832C127.263 52.1773 130.434 54.5406 135.006 55.9439C139.136 57.1255 139.431 57.421 139.431 59.415C139.431 62.4431 136.26 63.6248 133.015 61.7784C131.024 60.5967 130.581 60.5967 129.623 61.483C128.811 62.3692 128.738 62.8862 129.475 64.1418C131.909 68.7946 141.054 67.3914 143.93 61.9261C146.216 57.4948 144.446 54.7622 138.03 52.6942C135.965 52.0295 133.752 50.9956 133.162 50.4786C132.277 49.5923 132.277 49.2969 133.384 48.1891C134.49 47.0813 134.932 47.0074 137.071 47.8937C140.98 49.4446 142.897 49.74 143.487 48.7061C144.815 46.5643 141.865 44.1271 136.85 43.2408C135.006 42.8715 133.605 43.1669 131.982 44.2009Z" fill="white"/>
<path d="M116.422 44.4225C115.02 46.195 113.767 49.0015 113.177 51.6603C111.997 56.8301 116.643 62.8124 120.994 61.7046C124.829 60.7444 127.189 52.8419 124.976 48.4845C122.69 44.1271 118.339 42.0591 116.422 44.4225ZM121.953 53.8021C121.805 55.353 121.289 55.7961 119.372 55.9439C117.602 56.0916 116.938 55.87 116.569 54.6883C116.127 53.1374 117.233 50.257 118.708 49.2969C119.962 48.4106 122.174 51.6603 121.953 53.8021Z" fill="white"/>
<path d="M114.43 70.2717C112.882 72.4135 112.955 73.7429 114.799 80.833C115.905 85.1166 116.348 89.6956 116.569 97.8196C116.79 107.79 116.938 108.972 118.265 109.858C120.33 111.187 121.953 110.227 122.911 106.978C123.575 104.762 123.501 102.103 122.543 94.3485C121.879 88.957 120.994 81.2023 120.552 77.1402C120.109 73.0782 119.593 69.5332 119.372 69.1639C118.708 68.0561 115.463 68.7208 114.43 70.2717Z" fill="white"/>
<path d="M90.0197 71.2318C89.651 71.3796 87.881 71.8965 86.1111 72.3397C84.3411 72.7828 82.3499 73.7429 81.5387 74.5553C80.0637 76.0324 80.285 78.7651 81.9812 79.1343C82.7924 79.282 83.0136 81.7931 83.3086 90.4341C83.6036 101.586 84.7836 111.04 86.1111 112.738C87.2173 114.142 90.0197 113.92 91.4947 112.221C92.8222 110.744 92.7484 107.864 91.421 101.882C91.0522 100.183 91.4947 99.7399 96.6571 97.0811C102.926 93.8315 108.309 89.5479 109.932 86.2983C110.522 85.1904 111.038 82.7532 111.038 80.9069C111.038 77.8049 110.817 77.3618 108.309 75.737C106.761 74.703 104.179 73.3736 102.557 72.8567C99.4595 71.7488 91.3472 70.7149 90.0197 71.2318ZM96.0671 77.8049C98.2058 78.3958 100.861 79.5775 102.114 80.3899C104.106 81.7931 104.253 82.1624 103.589 84.1565C102.631 86.7414 97.7633 91.3204 95.2559 91.9851C94.2971 92.2067 92.6747 92.2805 91.7897 92.1328C90.0935 91.9112 90.0197 91.6897 90.0197 85.6336C90.0197 82.1624 89.7985 78.9866 89.4297 78.4696C89.061 77.9527 89.5035 77.5095 90.536 77.288C91.4947 77.1402 92.2322 76.9187 92.2322 76.8448C92.2322 76.8448 93.9284 77.2141 96.0671 77.8049Z" fill="white"/>
<path d="M190.907 72.2658C187.515 73.1521 183.754 75.5154 183.459 77.0664C183.311 77.8049 183.754 78.9866 184.418 79.7252C185.598 81.0546 185.745 80.9807 189.654 79.2082C194.374 77.0664 196.881 77.1402 197.176 79.5775C197.471 81.4238 197.029 81.6454 191.866 82.3101C184.934 83.2702 180.214 90.2126 182.5 96.121C183.606 99.0752 186.114 100.331 191.94 100.848C195.332 101.143 197.397 101.734 197.618 102.325C198.208 103.802 200.126 103.58 200.863 102.029C202.117 99.7399 202.56 79.799 201.453 77.2141C199.61 72.9305 195.849 71.158 190.907 72.2658ZM197.176 88.2185C197.323 88.8832 197.25 90.9511 196.955 92.7237L196.512 95.9733H192.899C190.539 95.9733 188.842 95.5302 187.662 94.57C185.966 93.1668 185.966 93.0191 186.999 91.0988C187.736 89.6956 189.285 88.6616 191.792 87.8492C196.144 86.3721 196.881 86.3721 197.176 88.2185Z" fill="white"/>
<path d="M150.567 77.9527C149.903 78.5435 149.387 79.7252 149.387 80.4637C149.387 82.9009 151.673 83.4918 157.794 82.6794C163.473 81.9408 165.612 82.2362 165.612 83.5656C165.612 84.0088 163.399 87.0368 160.744 90.3603C155.435 96.8595 153.37 100.405 154.033 102.029C154.771 104.023 159.859 104.836 169.742 104.467C179.698 104.023 181.099 103.58 181.099 100.331C181.099 98.6321 178.444 98.1151 170.7 98.2628C167.087 98.4105 163.989 98.2628 163.694 98.0412C162.957 97.3027 164.727 94.7177 170.11 88.5139C172.913 85.1904 175.199 82.0885 175.199 81.4977C175.199 80.9069 173.429 79.5775 171.364 78.6173C167.972 77.0664 166.349 76.771 159.564 76.771C153.37 76.771 151.452 76.9925 150.567 77.9527Z" fill="white"/>
<path d="M136.555 78.3219C132.572 79.282 129.328 81.7193 129.623 83.6395C129.991 86.3721 131.909 86.7414 135.596 84.9689C139.8 82.9009 143.045 83.1225 143.34 85.4859C143.635 87.3322 143.192 87.5538 137.956 88.2185C134.932 88.6616 133.752 89.3263 131.171 91.9113C128.59 94.4223 128 95.5301 128 97.7458C128 100.922 129.623 104.467 131.614 105.574C132.425 105.944 135.375 106.535 138.251 106.756C141.57 107.052 143.561 107.642 143.782 108.233C144.372 109.858 146.437 109.415 147.101 107.569C147.396 106.682 147.912 101.291 148.133 95.6779C148.65 82.0885 147.617 79.1343 141.644 78.0265C140.39 77.8049 138.177 77.9527 136.555 78.3219ZM143.192 94.1269C143.413 95.087 143.34 97.2288 142.971 98.7059C142.381 101.365 142.16 101.512 138.989 101.734C136.481 101.882 135.154 101.586 133.826 100.478C132.13 99.0752 132.13 98.9275 133.162 97.0072C133.9 95.6779 135.522 94.57 137.956 93.6838C142.75 91.9851 142.676 91.9851 143.192 94.1269Z" fill="white"/>
<path d="M6.53665 80.5376C0.931775 81.5715 0.194292 82.3101 0.563034 86.3721C0.784279 88.2923 1.8905 92.7236 2.99673 96.2687L5.13543 102.62L2.99673 104.91C0.931775 106.978 0.858027 107.199 2.11175 108.085C2.77548 108.602 4.1767 108.898 5.06168 108.75C6.61039 108.455 7.05288 108.972 8.4541 112.369C12.4365 121.749 13.469 122.783 16.6402 121.084C18.6314 119.976 18.4839 118.647 15.8289 113.994C12.8053 108.602 13.1002 106.978 17.5989 105.501C22.1713 104.023 23.13 103.063 21.8025 101.439C20.9913 100.478 20.0326 100.331 17.2302 100.7C15.2389 100.995 13.2477 101.365 12.6578 101.586C10.814 102.325 6.09416 87.0368 7.71662 85.412C8.08536 85.0427 10.2241 85.1904 12.8053 85.7074C16.9352 86.5937 17.4514 86.5198 18.8526 85.2643C19.6638 84.5257 20.3276 83.4918 20.3276 82.9748C20.3276 81.0546 11.6253 79.5036 6.53665 80.5376Z" fill="white"/>
<path d="M36.1097 88.1446C35.8885 88.7355 36.7735 91.025 38.1009 93.3884C40.8296 98.2628 41.1984 103.728 39.1334 108.159C37.7322 110.966 35.3723 112.812 34.266 111.704C33.0123 110.449 30.6524 102.325 30.6524 99.3706C30.6524 93.5361 29.8411 90.8034 28.0712 90.3603C25.0475 89.6217 23.2775 91.2466 23.2775 94.7916C23.2775 102.251 26.5225 112.517 29.6936 115.397C30.5049 116.136 32.4223 116.948 33.8973 117.17C37.511 117.761 41.7146 114.954 43.7796 110.597C47.0245 103.802 46.5082 93.1668 42.6733 89.1048C40.5346 86.963 36.7735 86.3721 36.1097 88.1446Z" fill="white"/>
<path d="M59.3405 91.8374C58.3817 92.2805 56.9068 93.9053 56.0955 95.4563C54.2518 98.8536 53.2194 99.0013 53.6618 95.7517C54.1781 92.4282 53.7356 91.542 51.3019 91.542C48.4257 91.542 48.057 93.1668 49.0894 101.365C50.4169 111.704 50.7119 112.591 52.7769 112.591C54.3256 112.591 54.8418 112 55.948 108.529C58.9717 99.5183 59.6355 98.1151 60.1517 98.7059C60.5204 99.0013 61.3317 102.473 61.9954 106.313C62.6591 110.153 63.4704 113.625 63.8391 113.994C64.2079 114.363 65.3878 114.363 66.494 114.142C68.4115 113.625 68.4115 113.551 67.969 109.046C67.379 103.58 65.6091 96.4164 64.2079 93.6838C62.8804 91.1727 61.5529 90.7296 59.3405 91.8374Z" fill="white"/>
</svg>
