<svg width="400" height="109" viewBox="0 0 400 109" fill="none" xmlns="http://www.w3.org/2000/svg">
<g clip-path="url(#clip0_1_2)">
<rect width="400" height="109" fill="white"/>
<g clip-path="url(#clip1_1_2)">
<path d="M305.697 25.1261C305.697 21.4292 302.701 18.4323 299.004 18.4323C298.257 18.4323 297.539 18.5564 296.868 18.7822C295.65 17.1239 293.687 16.047 291.471 16.047C289.912 16.047 288.477 16.5822 287.339 17.4769C285.839 15.0562 283.159 13.4431 280.102 13.4431C276.551 13.4431 273.509 15.6195 272.233 18.7108C271.506 18.3941 270.704 18.2176 269.86 18.2176C266.815 18.2176 264.307 20.5028 263.95 23.4509C259.998 23.754 256.885 27.0543 256.885 31.0843C256.885 31.2281 256.89 31.3706 256.898 31.5125C254.413 31.9478 252.524 34.1142 252.524 36.7235C252.524 37.5934 252.736 38.4135 253.107 39.1373C249.977 40.377 247.762 43.4288 247.762 46.9999C247.762 50.4602 249.842 53.4332 252.818 54.7424C252.44 55.6498 252.23 56.6452 252.23 57.6898C252.23 61.9193 255.658 65.3482 259.888 65.3482C261.413 65.3482 262.833 64.9007 264.026 64.1324C265.248 67.1669 268.217 69.31 271.689 69.31C273.946 69.31 275.991 68.4032 277.482 66.9354C278.642 68.6719 280.619 69.816 282.863 69.816C284.7 69.816 286.356 69.0493 287.533 67.82C288.606 68.6118 289.932 69.0805 291.368 69.0805C294.94 69.0805 297.835 66.1854 297.835 62.614C297.835 59.8096 296.049 57.423 293.554 56.5268C294.744 55.7518 295.566 54.4593 295.7 52.9679C296.01 53.0118 296.326 53.036 296.648 53.036C300.345 53.036 303.342 50.0391 303.342 46.3423C303.342 42.8863 300.723 40.0429 297.361 39.6868C298.274 38.3851 298.811 36.801 298.811 35.0907C298.811 33.9004 298.55 32.7718 298.084 31.7561C298.385 31.7975 298.691 31.8206 299.004 31.8206C302.701 31.8196 305.697 28.8229 305.697 25.1261Z" fill="#F7B239"/>
<path d="M287.407 17.4259C287.385 17.4433 287.362 17.4597 287.339 17.4772C285.84 15.0567 283.16 13.4423 280.103 13.4423C276.551 13.4423 273.509 15.6186 272.233 18.7106C271.506 18.3931 270.703 18.2181 269.861 18.2181C266.817 18.2181 264.308 20.502 263.95 23.4498C259.997 23.7539 256.886 27.0537 256.886 31.0847C256.886 31.227 256.89 31.3714 256.898 31.5118C254.414 31.9467 252.524 34.1132 252.524 36.7223C252.524 37.5939 252.736 38.4135 253.107 39.1371C249.977 40.3762 247.762 43.4279 247.762 46.999C247.762 50.4606 249.842 53.4332 252.819 54.7416C252.44 55.6498 252.23 56.6446 252.23 57.6894C252.23 61.9187 255.659 65.3474 259.888 65.3474C261.298 65.3474 262.618 64.9665 263.751 64.2988C261.945 63.0269 260.763 60.924 260.763 58.5457C260.763 57.5855 260.956 56.6696 261.304 55.8365C258.57 54.634 256.659 51.9035 256.659 48.7231C256.659 45.4424 258.695 42.639 261.569 41.4999C261.229 40.8362 261.034 40.0818 261.034 39.2834C261.034 36.8859 262.77 34.8945 265.052 34.4962C265.044 34.3654 265.04 34.2345 265.04 34.1018C265.04 30.3998 267.9 27.3675 271.53 27.0884C271.857 24.3812 274.163 22.282 276.96 22.282C277.736 22.282 278.473 22.4436 279.14 22.7342C280.312 19.8942 283.108 17.895 286.369 17.895C286.721 17.895 287.067 17.9183 287.407 17.9633L287.407 17.4259Z" fill="#E09B2D"/>
<path d="M320.238 39.5406L319.498 39.9676C315.633 42.199 310.691 40.8748 308.46 37.0098L308.033 36.2704L308.772 35.8434C312.637 33.612 317.579 34.9362 319.81 38.8012L320.238 39.5406Z" fill="#F7B239"/>
<path d="M300.887 26.5692C300.09 26.5692 299.444 25.9231 299.444 25.1261C299.444 24.8833 299.247 24.6856 299.004 24.6856C298.206 24.6856 297.561 24.0395 297.561 23.2425C297.561 22.4454 298.206 21.7994 299.004 21.7994C300.838 21.7994 302.33 23.2917 302.33 25.1259C302.33 25.9231 301.684 26.5692 300.887 26.5692Z" fill="white"/>
<path d="M293.024 64.0563C292.227 64.0563 291.581 63.4102 291.581 62.6132C291.581 62.4638 291.441 62.4119 291.44 62.4115C290.69 62.1421 290.3 61.3157 290.57 60.5655C290.839 59.8154 291.666 59.4258 292.416 59.6952C293.437 60.0619 294.467 61.1066 294.467 62.6133C294.467 63.4102 293.821 64.0563 293.024 64.0563Z" fill="white"/>
<path d="M298.531 47.7846C297.734 47.7846 297.088 47.1385 297.088 46.3415C297.088 46.1121 296.926 45.9284 296.702 45.9045C295.91 45.8204 295.336 45.1099 295.419 44.3173C295.503 43.5248 296.213 42.9498 297.006 43.0343C298.698 43.2137 299.975 44.6354 299.975 46.3415C299.975 47.1385 299.328 47.7846 298.531 47.7846Z" fill="white"/>
<path d="M321.487 38.819L321.06 38.0796C318.435 33.532 312.598 31.9675 308.05 34.5935L307.311 35.0206C306.621 35.419 306.384 36.3017 306.783 36.9918L307.21 37.7312C308.481 39.9343 310.535 41.5104 312.993 42.1688C313.813 42.3888 314.646 42.4974 315.473 42.4974C317.123 42.4974 318.752 42.0645 320.22 41.2176L320.959 40.7906C321.291 40.5992 321.533 40.284 321.632 39.9143C321.731 39.5445 321.679 39.1506 321.487 38.819ZM313.74 39.3809C312.227 38.9759 310.935 38.0721 310.042 36.8089C312.933 35.4789 316.389 36.405 318.228 39.002C316.823 39.6501 315.251 39.7862 313.74 39.3809Z" fill="#333333"/>
<path d="M311.263 89.1136H272.506C272.544 82.4061 272.852 76.2319 273.331 70.613C274.762 70.3697 276.113 69.811 277.297 68.9685C278.764 70.4232 280.754 71.2583 282.863 71.2583C284.637 71.2583 286.313 70.6822 287.688 69.6166C288.816 70.2121 290.069 70.5227 291.368 70.5227C295.729 70.5227 299.278 66.9744 299.278 62.613C299.278 60.0298 298.01 57.6491 295.978 56.1869C296.358 55.6674 296.653 55.091 296.854 54.4759C301.246 54.366 304.785 50.7593 304.785 46.3417C304.785 42.8779 302.632 39.8928 299.529 38.727C300.007 37.5829 300.254 36.3525 300.254 35.09C300.254 34.447 300.191 33.8136 300.064 33.1939C304.052 32.6728 307.141 29.2532 307.141 25.1259C307.141 20.6392 303.49 16.9891 299.004 16.9891C298.458 16.9891 297.916 17.0437 297.383 17.152C295.856 15.5416 293.712 14.6039 291.472 14.6039C290.138 14.6039 288.858 14.9197 287.704 15.5266C285.826 13.2959 283.076 12 280.102 12C276.508 12 273.257 13.9073 271.493 16.9556C270.96 16.8351 270.415 16.7745 269.86 16.7745C266.507 16.7745 263.621 19.025 262.739 22.165C258.786 22.9662 255.771 26.3533 255.467 30.4097C252.866 31.3714 251.081 33.8611 251.081 36.7234C251.081 37.2915 251.154 37.8593 251.296 38.4092C248.233 40.1543 246.319 43.3928 246.319 46.9999C246.319 50.4793 248.145 53.6702 251.064 55.4512C250.88 56.1788 250.787 56.9276 250.787 57.6898C250.787 62.7082 254.87 66.7911 259.888 66.7911C261.101 66.7911 262.29 66.551 263.395 66.0886C264.919 68.6094 267.496 70.294 270.429 70.6719C269.958 76.2871 269.658 82.4427 269.619 89.1139H259.888C259.091 89.1139 258.445 89.76 258.445 90.557C258.445 91.3541 259.091 92.0002 259.888 92.0002H311.263C312.06 92.0002 312.706 91.3541 312.706 90.557C312.706 89.76 312.06 89.1136 311.263 89.1136ZM265.365 63.5932C265.204 63.194 264.874 62.8874 264.464 62.7568C264.054 62.6265 263.607 62.6855 263.245 62.9187C262.243 63.5638 261.082 63.9047 259.888 63.9047C256.461 63.9047 253.673 61.1165 253.673 57.6894C253.673 56.8613 253.833 56.0566 254.15 55.2979C254.452 54.5723 254.119 53.7376 253.399 53.4212C250.852 52.3005 249.205 49.7799 249.205 46.9996C249.205 44.1048 250.945 41.5451 253.638 40.4785C254.017 40.3287 254.315 40.0257 254.458 39.6448C254.601 39.2639 254.577 38.8399 254.391 38.4778C254.11 37.9301 253.967 37.3398 253.967 36.7232C253.967 34.8501 255.304 33.2564 257.146 32.9337C257.867 32.8075 258.379 32.1623 258.338 31.432C258.332 31.3167 258.328 31.2009 258.328 31.0839C258.328 27.857 260.846 25.1361 264.06 24.8895C264.746 24.837 265.3 24.307 265.382 23.6239C265.656 21.3644 267.58 19.6606 269.859 19.6606C270.483 19.6606 271.088 19.7862 271.657 20.0339C272.012 20.1886 272.415 20.194 272.774 20.0483C273.134 19.903 273.419 19.6192 273.567 19.2609C274.664 16.6031 277.229 14.8861 280.102 14.8861C282.565 14.8861 284.812 16.1387 286.113 18.2372C286.329 18.5862 286.684 18.8265 287.088 18.8981C287.492 18.9694 287.908 18.8655 288.231 18.6115C289.164 17.8781 290.284 17.4903 291.471 17.4903C293.135 17.4903 294.718 18.2926 295.705 19.6367C296.077 20.1425 296.734 20.3501 297.329 20.15C297.87 19.9678 298.433 19.8755 299.004 19.8755C301.899 19.8755 304.254 22.2309 304.254 25.1262C304.254 28.0215 301.899 30.377 299.004 30.377C298.77 30.377 298.527 30.3598 298.281 30.3261C297.759 30.2537 297.24 30.4723 296.926 30.8948C296.612 31.3175 296.553 31.8776 296.772 32.3565C297.168 33.2193 297.368 34.1392 297.368 35.0903C297.368 36.446 296.957 37.749 296.18 38.8581C295.886 39.2765 295.836 39.8189 296.048 40.284C296.259 40.749 296.701 41.0678 297.209 41.1215C299.883 41.4048 301.899 43.649 301.899 46.3418C301.899 49.237 299.543 51.5926 296.648 51.5926C296.405 51.5926 296.154 51.5745 295.903 51.5388C295.511 51.4834 295.114 51.591 294.804 51.8365C294.494 52.0823 294.298 52.4443 294.263 52.8384C294.171 53.854 293.626 54.7574 292.766 55.3173C292.307 55.6163 292.057 56.1496 292.12 56.694C292.184 57.2383 292.55 57.6998 293.066 57.8848C295.055 58.599 296.391 60.4994 296.391 62.6137C296.391 65.3836 294.138 67.6371 291.368 67.6371C290.287 67.6371 289.257 67.2986 288.39 66.6585C287.806 66.2277 286.993 66.2977 286.491 66.8216C285.533 67.8218 284.245 68.3724 282.863 68.3724C281.181 68.3724 279.618 67.5354 278.682 66.1335C278.444 65.7758 278.057 65.5432 277.629 65.4993C277.58 65.4943 277.531 65.4918 277.482 65.4918C277.105 65.4918 276.741 65.6396 276.469 65.9066C275.771 66.5943 274.949 67.1124 274.056 67.4432C275.923 63.4154 280.306 55.3657 286.682 52.288C287.399 51.9415 287.7 51.0787 287.354 50.361C287.007 49.6435 286.145 49.3427 285.427 49.6887C281.432 51.6173 277.729 55.3173 274.413 60.6802C275.031 56.0576 275.747 51.9407 276.48 48.3493C276.784 47.4256 279.369 40.0389 284.732 37.6256C285.458 37.2985 285.782 36.4442 285.456 35.7175C285.128 34.9906 284.274 34.6668 283.547 34.9935C281.685 35.8314 280.12 37.1075 278.823 38.5312C281.244 29.7795 283.471 25.2384 283.516 25.1483C283.872 24.4354 283.583 23.5686 282.87 23.2122C282.157 22.8556 281.291 23.1447 280.934 23.8575C280.817 24.0912 278.04 29.709 275.242 40.7821C274.425 44.0115 273.56 47.9229 272.758 52.4827C272.354 50.0699 272.127 47.4793 272.477 45.4949C272.616 44.7101 272.092 43.9617 271.307 43.8231C270.522 43.6835 269.773 44.2085 269.635 44.9935C268.714 50.2129 271.075 58.4129 271.582 60.0805C271.254 62.5147 270.952 65.0852 270.689 67.7927C268.313 67.4458 266.283 65.8751 265.365 63.5932Z" fill="#333333"/>
</g>
<path d="M202.312 38.5712C198.887 42.0492 197.922 45.3339 199.369 48.8602C200.382 51.2271 202.649 52.4831 205.929 52.4831C209.016 52.4831 210.415 51.7102 211.187 49.5848C211.862 47.5076 210.753 47.1695 208.775 48.8119C207.087 50.261 207.232 50.2127 204.916 49.5848C202.987 49.0534 202.071 47.6042 202.071 44.9958C202.071 43.3051 203.711 41.228 206.605 39.2958C208.341 38.0881 208.148 36.3492 206.267 36.1559C205.158 36.011 204.386 36.4941 202.312 38.5712Z" fill="black"/>
<path d="M214.805 36.4458C213.744 37.122 212.2 40.8898 212.2 42.6771C212.2 45.5754 214.274 48.0873 216.638 48.1356C218.181 48.1356 219.291 47.1212 220.304 44.7542L221.027 43.0636L221.365 44.561C221.895 46.9763 223.439 49.6814 224.838 50.7441C226.14 51.6619 226.236 51.6619 227.828 50.889C228.793 50.4542 229.902 49.3915 230.336 48.522C230.771 47.6525 231.205 46.8314 231.301 46.7348C231.398 46.6381 232.121 47.2178 232.893 48.0873C236.269 51.7102 241.238 48.2322 241.093 42.2424C240.996 37.75 240.611 36.7839 238.971 36.7839H237.524L237.668 40.4068C237.813 43.9814 237.282 46.6864 236.366 46.6864C236.125 46.6864 235.16 45.5754 234.195 44.2712C233.231 42.9186 232.121 41.711 231.687 41.5178C230.674 41.1314 229.324 42.5322 228.648 44.7059C228.359 45.7203 227.78 46.8314 227.442 47.1695C226.381 48.039 225.127 45.2373 224.741 40.9864C224.355 37.0737 223.535 35.7695 221.895 36.3009C221.075 36.5424 220.882 37.0254 220.834 38.6195C220.834 40.4068 220.738 40.5517 220.255 39.6822C218.519 36.8322 216.252 35.4797 214.805 36.4458ZM217.506 40.8415C218.615 43.0153 217.506 45.1407 215.576 44.5127C214.853 44.2712 214.612 43.7881 214.612 42.6288C214.612 40.117 216.493 38.9576 217.506 40.8415Z" fill="black"/>
<path d="M157.984 37.1703C157.164 37.75 157.115 38.3297 157.308 42.3873C157.453 44.8992 157.405 48.3288 157.115 50.0678C156.874 51.8068 156.826 53.6907 156.971 54.2703C157.308 55.7678 158.852 56.5407 160.154 55.8644C161.022 55.3814 161.119 54.9466 160.974 51.7102C160.878 48.7153 160.974 48.1356 161.553 48.2322C161.939 48.3288 162.566 49.2949 162.904 50.4059C163.579 52.4831 164.64 53.2559 166.087 52.6763C166.521 52.5314 166.955 51.9034 167.052 51.3237C167.92 47.0246 168.933 43.3051 169.271 43.3051C169.801 43.3051 170.525 45.3339 171.682 50.0195C173.081 55.6712 173.805 56.9271 175.445 56.7339C176.554 56.589 176.747 56.3958 176.651 55.1398C176.602 53.6907 173.322 42.339 171.875 38.5712C171.296 37.0254 170.862 36.5424 170.042 36.5424C168.402 36.5424 167.341 38.0398 166.328 41.711C165.074 46.1068 164.688 46.3966 163.482 43.4983C161.842 39.5373 160.299 36.7839 159.575 36.639C159.189 36.5907 158.466 36.8322 157.984 37.1703Z" fill="black"/>
<path d="M190.205 40.3585C188.468 41.4212 187.118 43.1602 187.118 44.2712C187.118 45.5754 189.192 47.1212 192.182 48.039C194.884 48.8119 195.076 49.0051 195.076 50.3093C195.076 52.2898 193.002 53.0627 190.88 51.8551C189.578 51.0822 189.288 51.0822 188.661 51.6619C188.131 52.2415 188.082 52.5797 188.565 53.4009C190.156 56.4441 196.138 55.5263 198.019 51.9517C199.514 49.0534 198.356 47.2661 194.16 45.9136C192.809 45.4788 191.362 44.8026 190.976 44.4644C190.398 43.8848 190.398 43.6915 191.121 42.967C191.845 42.2424 192.134 42.1941 193.533 42.7737C196.089 43.7881 197.344 43.9814 197.729 43.3051C198.598 41.9042 196.668 40.3102 193.388 39.7305C192.182 39.489 191.266 39.6822 190.205 40.3585Z" fill="black"/>
<path d="M180.027 40.5034C179.111 41.6627 178.291 43.4983 177.905 45.2373C177.133 48.6187 180.172 52.5314 183.018 51.8068C185.526 51.1788 187.069 46.0102 185.622 43.1602C184.127 40.3102 181.281 38.9576 180.027 40.5034ZM183.645 46.6381C183.548 47.6526 183.211 47.9424 181.956 48.039C180.799 48.1356 180.365 47.9907 180.124 47.2178C179.834 46.2034 180.558 44.3195 181.522 43.6915C182.342 43.1119 183.789 45.2373 183.645 46.6381Z" fill="black"/>
<path d="M178.725 57.4102C177.712 58.811 177.76 59.6805 178.966 64.3178C179.689 67.1195 179.979 70.1144 180.124 75.428C180.268 81.9492 180.365 82.722 181.233 83.3017C182.584 84.1712 183.645 83.5432 184.272 81.4178C184.706 79.9686 184.658 78.2297 184.031 73.1576C183.596 69.6314 183.018 64.5593 182.728 61.9025C182.439 59.2458 182.101 56.9271 181.956 56.6856C181.522 55.961 179.4 56.3958 178.725 57.4102Z" fill="black"/>
<path d="M162.759 58.0381C162.518 58.1348 161.36 58.4729 160.202 58.7627C159.045 59.0526 157.742 59.6805 157.212 60.2119C156.247 61.178 156.392 62.9653 157.501 63.2068C158.032 63.3034 158.176 64.9458 158.369 70.5975C158.562 77.8915 159.334 84.0746 160.202 85.1856C160.926 86.1034 162.759 85.9585 163.724 84.8475C164.592 83.8814 164.544 81.9975 163.675 78.0848C163.434 76.9737 163.724 76.6839 167.1 74.9449C171.2 72.8195 174.721 70.0178 175.782 67.8924C176.168 67.1678 176.506 65.5737 176.506 64.3661C176.506 62.3373 176.361 62.0475 174.721 60.9848C173.708 60.3085 172.02 59.439 170.959 59.1009C168.933 58.3763 163.627 57.7 162.759 58.0381ZM166.714 62.3373C168.113 62.7237 169.849 63.4966 170.669 64.028C171.972 64.9458 172.068 65.1873 171.634 66.4915C171.007 68.1822 167.824 71.1771 166.184 71.6119C165.556 71.7568 164.495 71.8051 163.916 71.7085C162.807 71.5636 162.759 71.4187 162.759 67.4576C162.759 65.1873 162.614 63.1102 162.373 62.772C162.132 62.4339 162.421 62.1441 163.096 61.9992C163.724 61.9025 164.206 61.7576 164.206 61.7093C164.206 61.7093 165.315 61.9509 166.714 62.3373Z" fill="black"/>
<path d="M228.745 58.7144C226.526 59.2941 224.066 60.8398 223.873 61.8542C223.776 62.3373 224.066 63.1102 224.5 63.5932C225.272 64.4627 225.368 64.4144 227.925 63.2551C231.012 61.8542 232.652 61.9026 232.845 63.4966C233.038 64.7042 232.748 64.8492 229.372 65.2839C224.838 65.9119 221.751 70.4526 223.246 74.317C223.969 76.2492 225.609 77.0704 229.42 77.4085C231.639 77.6017 232.989 77.9881 233.134 78.3746C233.52 79.3407 234.774 79.1958 235.256 78.1814C236.076 76.6839 236.366 63.6415 235.642 61.9509C234.436 59.1492 231.976 57.9898 228.745 58.7144ZM232.845 69.1483C232.941 69.5831 232.893 70.9356 232.7 72.0949L232.411 74.2204H230.047C228.504 74.2204 227.394 73.9305 226.622 73.3026C225.513 72.3848 225.513 72.2881 226.188 71.0322C226.671 70.1144 227.684 69.4381 229.324 68.9068C232.169 67.9407 232.652 67.9407 232.845 69.1483Z" fill="black"/>
<path d="M202.36 62.4339C201.926 62.8203 201.588 63.5932 201.588 64.0763C201.588 65.6703 203.084 66.0568 207.087 65.5254C210.801 65.0424 212.2 65.2356 212.2 66.1051C212.2 66.3949 210.753 68.3754 209.016 70.5492C205.544 74.8 204.193 77.1187 204.627 78.1814C205.109 79.4856 208.438 80.017 214.901 79.7754C221.413 79.4856 222.329 79.1958 222.329 77.0703C222.329 75.9593 220.593 75.6212 215.528 75.7178C213.165 75.8144 211.139 75.7178 210.946 75.5729C210.464 75.0898 211.621 73.3992 215.142 69.3415C216.975 67.1678 218.471 65.139 218.471 64.7526C218.471 64.3661 217.313 63.4966 215.962 62.8687C213.744 61.8542 212.682 61.661 208.245 61.661C204.193 61.661 202.939 61.8059 202.36 62.4339Z" fill="black"/>
<path d="M193.195 62.6754C190.591 63.3034 188.468 64.8975 188.661 66.1534C188.902 67.9407 190.156 68.1822 192.568 67.0229C195.318 65.6703 197.44 65.8153 197.633 67.361C197.826 68.5687 197.536 68.7136 194.112 69.1483C192.134 69.4381 191.362 69.8729 189.674 71.5636C187.986 73.2059 187.6 73.9305 187.6 75.3797C187.6 77.4568 188.661 79.7754 189.964 80.5C190.494 80.7415 192.424 81.128 194.305 81.2729C196.475 81.4661 197.778 81.8526 197.922 82.239C198.308 83.3017 199.659 83.0119 200.093 81.8042C200.286 81.2246 200.624 77.6983 200.768 74.0271C201.106 65.139 200.431 63.2068 196.524 62.4822C195.704 62.3373 194.256 62.4339 193.195 62.6754ZM197.536 73.0127C197.681 73.6407 197.633 75.0415 197.392 76.0076C197.006 77.7466 196.861 77.8432 194.787 77.9881C193.147 78.0848 192.279 77.8915 191.411 77.167C190.301 76.2492 190.301 76.1526 190.976 74.8966C191.459 74.0271 192.52 73.3026 194.112 72.7229C197.247 71.6119 197.199 71.6119 197.536 73.0127Z" fill="black"/>
<path d="M108.156 64.1246C104.491 64.8009 104.008 65.2839 104.249 67.9407C104.394 69.1966 105.118 72.0949 105.841 74.4136L107.24 78.5678L105.841 80.0653C104.491 81.4178 104.442 81.5627 105.262 82.1424C105.696 82.4805 106.613 82.6737 107.192 82.5771C108.205 82.3839 108.494 82.722 109.411 84.9441C112.015 91.0788 112.691 91.7551 114.765 90.6441C116.067 89.9195 115.971 89.05 114.234 86.0068C112.256 82.4805 112.449 81.4178 115.392 80.4517C118.382 79.4856 119.009 78.8576 118.141 77.7949C117.611 77.167 116.984 77.0703 115.151 77.3119C113.848 77.5051 112.546 77.7466 112.16 77.8915C110.954 78.3746 107.867 68.3754 108.928 67.3127C109.169 67.0712 110.568 67.1678 112.256 67.5059C114.958 68.0856 115.295 68.0373 116.212 67.2161C116.742 66.7331 117.176 66.0568 117.176 65.7186C117.176 64.4627 111.485 63.4483 108.156 64.1246Z" fill="black"/>
<path d="M127.499 69.1C127.354 69.4865 127.933 70.9839 128.801 72.5297C130.586 75.7178 130.827 79.2924 129.476 82.1907C128.56 84.0263 127.016 85.2339 126.293 84.5093C125.473 83.6881 123.929 78.3746 123.929 76.4424C123.929 72.6263 123.399 70.839 122.241 70.5492C120.264 70.0661 119.106 71.1288 119.106 73.4475C119.106 78.3263 121.228 85.0407 123.302 86.9246C123.833 87.4076 125.087 87.939 126.052 88.0839C128.415 88.4704 131.165 86.6348 132.515 83.7848C134.638 79.3407 134.3 72.3848 131.792 69.728C130.393 68.3271 127.933 67.9407 127.499 69.1Z" fill="black"/>
<path d="M142.693 71.5153C142.066 71.8051 141.101 72.8678 140.571 73.8822C139.365 76.1042 138.689 76.2009 138.979 74.0754C139.316 71.9017 139.027 71.322 137.435 71.322C135.554 71.322 135.313 72.3848 135.988 77.7466C136.856 84.5093 137.049 85.089 138.4 85.089C139.413 85.089 139.751 84.7025 140.474 82.4322C142.452 76.539 142.886 75.6212 143.224 76.0076C143.465 76.2009 143.995 78.4712 144.429 80.9831C144.864 83.4949 145.394 85.7653 145.635 86.0068C145.876 86.2483 146.648 86.2483 147.372 86.1034C148.626 85.7653 148.626 85.717 148.336 82.7703C147.951 79.1958 146.793 74.5102 145.876 72.7229C145.008 71.0805 144.14 70.7907 142.693 71.5153Z" fill="black"/>
</g>
<defs>
<clipPath id="clip0_1_2">
<rect width="400" height="109" fill="white"/>
</clipPath>
<clipPath id="clip1_1_2">
<rect width="80" height="80" fill="white" transform="translate(244 12)"/>
</clipPath>
</defs>
</svg>
