<svg width="124" height="124" viewBox="0 0 124 124" fill="none" xmlns="http://www.w3.org/2000/svg">
<path d="M100.693 105.895C98.279 99.4503 81.7856 87.9307 61.7982 87.9307C41.8108 87.9307 25.3174 99.4503 22.9034 105.895M100.693 105.895C112.898 95.1209 120.596 79.3585 120.596 61.7982C120.596 29.3248 94.2715 3 61.7982 3C29.3248 3 3 29.3248 3 61.7982C3 79.3585 10.698 95.1209 22.9034 105.895M100.693 105.895C90.3275 115.044 76.7112 120.596 61.7982 120.596C46.8852 120.596 33.2689 115.044 22.9034 105.895M81.3976 48.7319C81.3976 59.5564 72.6226 68.3313 61.7982 68.3313C50.9737 68.3313 42.1988 59.5564 42.1988 48.7319C42.1988 37.9075 50.9737 29.1325 61.7982 29.1325C72.6226 29.1325 81.3976 37.9075 81.3976 48.7319Z" stroke="white" stroke-width="6"/>
</svg>
